<?xml version="1.0" encoding="utf-8"?>
<!-- Generator: Adobe Illustrator 22.1.0, SVG Export Plug-In . SVG Version: 6.00 Build 0)  -->
<svg version="1.1" id="Ebene_1" xmlns="http://www.w3.org/2000/svg" xmlns:xlink="http://www.w3.org/1999/xlink" x="0px" y="0px"
	 viewBox="0 0 360 360" style="enable-background:new 0 0 360 360;" xml:space="preserve">
<style type="text/css">
	.st0{fill:#FFFFFF;}
</style>
<path class="st0" d="M314.1,170.1c-1.9,3.7-5.3,9-8.4,12.1H55.4c-1.9-2.5-6.2-8.1-8.1-12.1H314.1L314.1,170.1L314.1,170.1z
	 M295.4,195H65.6c3.7,4.4,7.8,8.4,11.8,11.2h205.1C287.6,203.4,292.3,199.4,295.4,195L295.4,195L295.4,195z M267,218.1h-63
	c-1.9,10-1.9,19.3-1.9,26.2C220.6,243,244.9,234.6,267,218.1L267,218.1L267,218.1z M337.5,88.4c-28.7,1.9-69.8,21.2-96.6,52.7
	c-5,5.6-9.4,11.2-12.8,17.1h92.3C332.8,133.3,339.3,108.7,337.5,88.4L337.5,88.4L337.5,88.4z M158.5,244.3c0.3-6.8,0.3-16.2-1-26.2
	H94C116.5,234.6,140.8,243,158.5,244.3L158.5,244.3L158.5,244.3z M180.7,246.1c6.5-6.9,13.4-16.2,19.6-28h-39.6
	C167.3,229.9,173.5,239.3,180.7,246.1L180.7,246.1L180.7,246.1z M133.6,158.2c-3.4-5.9-8.1-11.5-12.8-17.1
	C94,109.6,52.5,90.3,24.2,88.4c-1.9,20.3,4.4,44.9,16.8,69.8H133.6L133.6,158.2L133.6,158.2z M220.6,158.2c0.6-7.2,1.2-14,1.2-22.1
	c0-43.6-19.6-88.8-41.2-109.1c-21.8,20.3-41.1,65.5-41.1,109.1c0,8.1,0,15,1.2,22.1H220.6L220.6,158.2L220.6,158.2z M313.5,334.1
	c13.1,0,24-5.3,24-18.4c0-7.5-5.3-12.5-13.7-14.6c-8.7-2.2-20-1.9-20-7.5c0.6-3.8,4.1-4.7,9.4-4.7c8.1,0,8.4,4.4,8.7,7.2h13.4
	c-0.9-10.3-9.4-17.4-22.7-17.4c-14,0-22.1,7.5-22.1,17.2c0,5.6,2.8,10.6,7.5,13.1c3.4,1.6,8.1,2.8,13.7,3.7
	c5.9,0.6,11.2,1.2,11.5,5.3c0,2.8-2.8,6.2-9,6.2c-9,0-10.9-5-10.9-8.4h-14C289.5,326.5,298.5,334.1,313.5,334.1L313.5,334.1
	L313.5,334.1z M240.2,306.3c0,8.1,7.2,15.3,15.6,15.3c8.1,0,15-7.2,15-15.3c0-8.4-6.9-15.6-15-15.6
	C247.4,290.7,240.2,297.9,240.2,306.3L240.2,306.3L240.2,306.3z M255.2,334.1c-15.3,0-28.1-12.5-28.1-27.8
	c0-15.6,12.8-27.7,28.1-27.7c5.9,0,11.2,1.6,15.6,4.7v-4.1h13.4v53.6h-13.4v-3.4C266.4,332.2,261.1,334.1,255.2,334.1L255.2,334.1
	L255.2,334.1z M178.8,306.3c0,8.1,7.2,15.3,15.3,15.3c8.4,0,15.6-7.2,15.6-15.3c0-8.4-7.2-15.6-15.6-15.6
	C186,290.7,178.8,297.9,178.8,306.3L178.8,306.3L178.8,306.3z M209.7,260.8h13.1v72h-13.1v-3.4c-4.4,2.8-10,4.7-15.9,4.7
	c-15.3,0-27.7-12.5-27.7-27.8c0-15.6,12.5-27.7,27.7-27.7c5.9,0,11.2,1.6,15.9,4.7V260.8L209.7,260.8L209.7,260.8z M147.3,274.2
	v-13.4h13.1v13.4H147.3L147.3,274.2L147.3,274.2z M160.4,332.8h-13.1v-53.6h13.1V332.8L160.4,332.8L160.4,332.8z M96.2,306.3
	c0,8.1,7.2,15.3,15.9,15.3c8.1,0,15.3-7.2,15.3-15.3c0-8.4-7.2-15.6-15.3-15.6C103.3,290.7,96.2,297.9,96.2,306.3L96.2,306.3
	L96.2,306.3z M111.5,334.1c-15.3,0-28.1-12.5-28.1-27.8c0-15.6,12.8-27.7,28.1-27.7c5.9,0,11.2,1.6,15.9,4.7v-22.5h13.4v72h-13.4
	v-3.4C122.7,332.2,117.4,334.1,111.5,334.1L111.5,334.1L111.5,334.1z M34.8,306.3c0,8.1,7.2,15.3,15.3,15.3
	c8.7,0,15.9-7.2,15.9-15.3c0-8.4-7.2-15.6-15.9-15.6C42,290.7,34.8,297.9,34.8,306.3L34.8,306.3L34.8,306.3z M49.7,334.1
	c-15.3,0-27.7-12.5-27.7-27.8c0-15.6,12.5-27.7,27.7-27.7c5.9,0,11.5,1.6,16.2,4.7v-4.1H79v53.6H66v-3.4
	C61.3,332.2,56,334.1,49.7,334.1L49.7,334.1L49.7,334.1z"/>
</svg>
