<svg id="Layer_1" data-name="Layer 1" xmlns="http://www.w3.org/2000/svg" viewBox="0 0 272.9 32.65"><defs><style>.cls-1{fill:#f5c0da;}</style></defs><title>POD-pink-horizontal</title><path class="cls-1" d="M815.79,381.55a5.67,5.67,0,0,1-.87,1.26H789.13a8.6,8.6,0,0,1-.83-1.26Zm-1.93,2.57H790.19a7.29,7.29,0,0,0,1.22,1.16h21.13a4.13,4.13,0,0,0,1.32-1.16Zm-2.92,2.38h-6.49a14.52,14.52,0,0,0-.19,2.7,13.34,13.34,0,0,0,6.68-2.7Zm7.26-13.36a15.88,15.88,0,0,0-10,5.43,11.71,11.71,0,0,0-1.32,1.76h9.51a14.05,14.05,0,0,0,1.77-7.19ZM799.76,389.2a16.33,16.33,0,0,0-.1-2.7h-6.55a13.6,13.6,0,0,0,6.65,2.7Zm2.28.19a13,13,0,0,0,2-2.89H800a11.88,11.88,0,0,0,2,2.89Zm-4.85-9.06a13.15,13.15,0,0,0-1.31-1.76,16,16,0,0,0-10-5.43,13.9,13.9,0,0,0,1.74,7.19Zm9,0c.07-.74.13-1.44.13-2.28,0-4.49-2-9.15-4.24-11.24-2.25,2.09-4.24,6.75-4.24,11.24a12.85,12.85,0,0,0,.13,2.28Zm9.58,18.12c1.35,0,2.47-.55,2.47-1.9,0-.77-.54-1.28-1.41-1.51s-2.06-.19-2.06-.77c.07-.38.42-.48,1-.48.83,0,.86.45.9.74H818a2.1,2.1,0,0,0-2.35-1.8c-1.44,0-2.28.77-2.28,1.77a1.51,1.51,0,0,0,.77,1.35,5.75,5.75,0,0,0,1.42.38c.6.07,1.15.13,1.18.55s-.29.64-.93.64c-.93,0-1.12-.51-1.12-.87h-1.45c0,1.13,1,1.9,2.51,1.9Zm-7.56-2.86a1.63,1.63,0,0,0,1.61,1.57,1.59,1.59,0,0,0,0-3.18,1.64,1.64,0,0,0-1.61,1.61Zm1.55,2.86a2.86,2.86,0,1,1,0-5.72,2.7,2.7,0,0,1,1.6.48v-.41h1.38v5.52h-1.38V398a2.93,2.93,0,0,1-1.6.48Zm-7.87-2.86a1.59,1.59,0,1,0,1.57-1.61,1.62,1.62,0,0,0-1.57,1.61ZM805,390.9h1.35v7.42H805V398a3.07,3.07,0,0,1-1.64.48,2.86,2.86,0,1,1,1.64-5.24V390.9Zm-6.43,1.38V390.9H800v1.38Zm1.35,6H798.6V392.8H800v5.52Zm-6.61-2.73A1.61,1.61,0,1,0,795,394a1.63,1.63,0,0,0-1.64,1.61Zm1.57,2.86a2.86,2.86,0,1,1,1.64-5.24V390.9h1.38v7.42h-1.38V398a3.15,3.15,0,0,1-1.64.48Zm-7.9-2.86a1.61,1.61,0,0,0,3.22,0,1.61,1.61,0,1,0-3.22,0Zm1.55,2.86a2.86,2.86,0,1,1,0-5.72,3,3,0,0,1,1.67.48v-.41h1.34v5.52h-1.34V398a3.17,3.17,0,0,1-1.67.48Z" transform="translate(-545.33 -366.81)"/><path class="cls-1" d="M565.76,381.21a5,5,0,0,1-.36,1.89,4.55,4.55,0,0,1-1,1.57,4.65,4.65,0,0,1-1.64,1.06,5.85,5.85,0,0,1-2.19.39h-3v5.93h-3.07V376.29h6.11a5.85,5.85,0,0,1,2.19.39,4.79,4.79,0,0,1,1.64,1.06,4.65,4.65,0,0,1,1,1.57A5.06,5.06,0,0,1,565.76,381.21Zm-3.08,0a2.07,2.07,0,0,0-.61-1.57,2.26,2.26,0,0,0-1.67-.6h-2.88v4.31h2.88a2.29,2.29,0,0,0,1.67-.58A2,2,0,0,0,562.68,381.21Z" transform="translate(-545.33 -366.81)"/><path class="cls-1" d="M569.68,392.05v-3.27H573v3.27Z" transform="translate(-545.33 -366.81)"/><path class="cls-1" d="M591.3,384.17q0,1.14,0,2a9.35,9.35,0,0,1-.19,1.67,5.7,5.7,0,0,1-.47,1.41,4.91,4.91,0,0,1-.92,1.24,5.74,5.74,0,0,1-1.82,1.23,6.22,6.22,0,0,1-2.39.43,6.35,6.35,0,0,1-2.4-.43,5.78,5.78,0,0,1-1.83-1.23,4.86,4.86,0,0,1-.91-1.24,5.32,5.32,0,0,1-.47-1.41,10.42,10.42,0,0,1-.18-1.67q0-.9,0-2c0-.75,0-1.43,0-2a10.29,10.29,0,0,1,.18-1.67,5.32,5.32,0,0,1,.47-1.41,4.86,4.86,0,0,1,.91-1.24,5.78,5.78,0,0,1,1.83-1.23,6.16,6.16,0,0,1,2.4-.43,6,6,0,0,1,2.39.43,5.74,5.74,0,0,1,1.82,1.23,4.91,4.91,0,0,1,.92,1.24,5.7,5.7,0,0,1,.47,1.41,9.25,9.25,0,0,1,.19,1.67C591.29,382.74,591.3,383.42,591.3,384.17Zm-3.07,0c0-.75,0-1.37-.05-1.87a10.84,10.84,0,0,0-.13-1.23,3.49,3.49,0,0,0-.23-.78,2.25,2.25,0,0,0-.37-.54,2.45,2.45,0,0,0-.83-.61,2.94,2.94,0,0,0-2.28,0,2.75,2.75,0,0,0-.85.61,2.25,2.25,0,0,0-.37.54,3.49,3.49,0,0,0-.23.78,9.13,9.13,0,0,0-.12,1.23c0,.5,0,1.12,0,1.87s0,1.38,0,1.87a8.63,8.63,0,0,0,.12,1.22,3.49,3.49,0,0,0,.23.78,2.25,2.25,0,0,0,.37.54,3,3,0,0,0,.85.62,2.83,2.83,0,0,0,2.28,0,2.62,2.62,0,0,0,.83-.62,2.25,2.25,0,0,0,.37-.54,3.49,3.49,0,0,0,.23-.78,10.15,10.15,0,0,0,.13-1.22C588.21,385.55,588.23,384.93,588.23,384.17Z" transform="translate(-545.33 -366.81)"/><path class="cls-1" d="M598,392.05v-3.27h3.3v3.27Z" transform="translate(-545.33 -366.81)"/><path class="cls-1" d="M620.17,384.17c0,.65,0,1.25,0,1.79s0,1-.11,1.48a5.77,5.77,0,0,1-.3,1.24,4.8,4.8,0,0,1-.57,1.07,5.15,5.15,0,0,1-2,1.75,6.29,6.29,0,0,1-2.76.55h-5.69V376.29h5.69a6.29,6.29,0,0,1,2.76.56,5.21,5.21,0,0,1,2,1.74,4.66,4.66,0,0,1,.57,1.08,5.63,5.63,0,0,1,.3,1.24c.06.45.09.94.11,1.48S620.17,383.52,620.17,384.17Zm-3.08,0c0-.62,0-1.15,0-1.6a8.82,8.82,0,0,0-.09-1.15,3.77,3.77,0,0,0-.18-.81,2.25,2.25,0,0,0-.35-.6,2.76,2.76,0,0,0-2.3-1H611.8v10.27h2.35a2.76,2.76,0,0,0,2.3-1,2.25,2.25,0,0,0,.35-.6,3.77,3.77,0,0,0,.18-.81,8.82,8.82,0,0,0,.09-1.15C617.09,385.33,617.09,384.79,617.09,384.17Z" transform="translate(-545.33 -366.81)"/><path class="cls-1" d="M627.08,392.05v-3.27h3.3v3.27Z" transform="translate(-545.33 -366.81)"/><path class="cls-1" d="M650.81,387.56a4.43,4.43,0,0,1-.42,1.95,4.25,4.25,0,0,1-1.17,1.46,5.26,5.26,0,0,1-1.8.91,8.16,8.16,0,0,1-2.28.31,9.38,9.38,0,0,1-3.11-.47,6.67,6.67,0,0,1-2.46-1.61l1.57-1.57a4.72,4.72,0,0,0,1.86,1.19,6.89,6.89,0,0,0,2.19.33,4,4,0,0,0,2.41-.63,2.12,2.12,0,0,0,.84-1.8,2,2,0,0,0-.62-1.64,3.17,3.17,0,0,0-1.72-.66l-1.86-.27a5.45,5.45,0,0,1-3-1.26,3.9,3.9,0,0,1-1.17-3,4.79,4.79,0,0,1,.36-1.87,4.33,4.33,0,0,1,1-1.46,4.75,4.75,0,0,1,1.65-.94,6.91,6.91,0,0,1,2.22-.33,7.91,7.91,0,0,1,2.73.42,6.5,6.5,0,0,1,2.16,1.37l-1.51,1.51a3.74,3.74,0,0,0-1.59-1,6.62,6.62,0,0,0-1.88-.26,3,3,0,0,0-2.13.69,2.34,2.34,0,0,0-.73,1.77,2.71,2.71,0,0,0,.13.82,1.5,1.5,0,0,0,.45.64,2.58,2.58,0,0,0,.69.43,5.31,5.31,0,0,0,1,.28l1.89.29a7.8,7.8,0,0,1,1.74.44,3.84,3.84,0,0,1,1.18.73A4.17,4.17,0,0,1,650.81,387.56Z" transform="translate(-545.33 -366.81)"/><path class="cls-1" d="M667.59,385.57v6.48H665.2v-6.48l-4.71-9.28h2.61l3.3,6.93,3.29-6.93h2.62Z" transform="translate(-545.33 -366.81)"/><path class="cls-1" d="M692.74,387.56a4.43,4.43,0,0,1-.42,1.95,4.25,4.25,0,0,1-1.17,1.46,5.35,5.35,0,0,1-1.8.91,8.16,8.16,0,0,1-2.28.31,9.38,9.38,0,0,1-3.11-.47,6.7,6.7,0,0,1-2.47-1.61l1.58-1.57a4.76,4.76,0,0,0,1.85,1.19,7,7,0,0,0,2.2.33,4,4,0,0,0,2.41-.63,2.12,2.12,0,0,0,.84-1.8,2,2,0,0,0-.62-1.64,3.18,3.18,0,0,0-1.73-.66l-1.86-.27a5.45,5.45,0,0,1-3-1.26,3.9,3.9,0,0,1-1.18-3,4.8,4.8,0,0,1,.37-1.87,4.2,4.2,0,0,1,1-1.46,4.75,4.75,0,0,1,1.65-.94,6.89,6.89,0,0,1,2.21-.33,7.93,7.93,0,0,1,2.74.42,6.5,6.5,0,0,1,2.16,1.37l-1.51,1.51a3.8,3.8,0,0,0-1.59-1,6.67,6.67,0,0,0-1.88-.26,3,3,0,0,0-2.13.69,2.3,2.3,0,0,0-.73,1.77,2.43,2.43,0,0,0,.13.82,1.57,1.57,0,0,0,.44.64,2.64,2.64,0,0,0,.7.43,5.12,5.12,0,0,0,1,.28l1.88.29a7.76,7.76,0,0,1,1.75.44,4,4,0,0,1,1.18.73A4.17,4.17,0,0,1,692.74,387.56Z" transform="translate(-545.33 -366.81)"/><path class="cls-1" d="M710.14,378.44v13.61h-2.39V378.44h-4.34v-2.15h11.07v2.15Z" transform="translate(-545.33 -366.81)"/><path class="cls-1" d="M726.06,392.05V376.29h10.07v2.15h-7.68V383H735v2.13h-6.55v4.74h7.68v2.14Z" transform="translate(-545.33 -366.81)"/><path class="cls-1" d="M759.77,392.05V381.52l-3.63,7.68h-1.77l-3.72-7.68v10.53h-2.39V376.29h2.39l4.61,9.81,4.51-9.81h2.39v15.76Z" transform="translate(-545.33 -366.81)"/><path class="cls-1" d="M770.31,369.71v29H546.22v-29H770.31m.89-.8H545.33v30.55H771.2V368.91Z" transform="translate(-545.33 -366.81)"/></svg>