<svg xmlns="http://www.w3.org/2000/svg" viewBox="0 0 100 125">
  <path fill-rule="evenodd" d="M48.6 89A39.06 39.06 0 0 1 9.52 50c0-21.52 17.51-39 39.06-39a39.09 39.09 0 0 1 38.94 35.31 2 2 0 0 1-4 .38A35.03 35.03 0 0 0 48.6 15a35 35 0 1 0 0 70 35.1 35.1 0 0 0 31.82-20.19l-14.79 4.31a2 2 0 1 1-1.12-3.84l18.72-5.47a2 2 0 0 1 .81-.06 2 2 0 0 1 .56.16 2 2 0 0 1 .2.1 2 2 0 0 1 .46.37 2 2 0 0 1 .25.3 2 2 0 0 1 .03.04 2 2 0 0 1 .13.31 2 2 0 0 1 .03.03 2 2 0 0 1 .1.44l4.62 18.84a2 2 0 0 1-1.91 2.5 2 2 0 0 1-2-1.53l-3.22-13.25A39.14 39.14 0 0 1 48.6 89z" color="#fff" overflow="visible" style="text-indent:0;text-transform:none;block-progression:tb"/>
</svg>
