<?xml version="1.0" encoding="utf-8"?>
<!-- Generator: Adobe Illustrator 22.1.0, SVG Export Plug-In . SVG Version: 6.00 Build 0)  -->
<svg version="1.1" id="Layer_1" xmlns="http://www.w3.org/2000/svg" xmlns:xlink="http://www.w3.org/1999/xlink" x="0px" y="0px"
	 viewBox="0 0 9070.9 679.8" style="enable-background:new 0 0 9070.9 679.8;" xml:space="preserve">
<style type="text/css">
	.st0{clip-path:url(#SVGID_2_);}
	.st1{clip-path:url(#SVGID_4_);}
	.st2{clip-path:url(#SVGID_6_);fill:#F3D8C3;}
	.st3{fill:#F3D8C3;}
</style>
<g>
	<defs>
		<rect id="SVGID_1_" x="0" y="0" width="9070.9" height="679.8"/>
	</defs>
	<clipPath id="SVGID_2_">
		<use xlink:href="#SVGID_1_"  style="overflow:visible;"/>
	</clipPath>
	<path class="st0" d="M344.6,489.3c0,34.2-3,63.2-8.9,86.8c-5.9,23.7-17.3,43.6-34.1,59.8c-13.7,13.1-31.3,23.7-52.8,31.7
		c-21.5,8.1-47.2,12.1-77,12.1c-56.7,0-99.6-14.6-128.9-43.9c-16.2-16.2-27.4-35.2-33.6-57C3.1,557.2,0,528.5,0,493.1h104.6
		c0,18.1,1.2,32.8,3.7,44.4c2.5,11.5,7.5,21.6,14.9,30.3c5,5,11.3,9.2,19.1,12.6c7.8,3.4,17.6,5.1,29.4,5.1c23,0,39.8-6.2,50.4-18.7
		c6.8-8.1,11.5-17.9,14-29.4c2.5-11.5,3.7-26.3,3.7-44.4c0-17.4-0.8-32.1-2.3-43.9c-1.6-11.8-4.7-21.6-9.3-29.4
		c-4.7-7.8-11.1-14.5-19.1-20.1c-8.1-5.6-18.7-10.9-31.8-15.9l-79.4-32.7c-16.8-6.8-31.1-14.6-43-23.3
		c-11.8-8.7-21.3-19.4-28.5-32.2c-7.2-12.8-12.5-28.2-15.9-46.2c-3.4-18-5.1-39.8-5.1-65.4c0-29.9,4.5-56.8,13.5-80.8
		c9-24,22.6-44,40.6-60.2c14.3-12.4,31-22.3,50-29.4c19-7.2,40.3-10.7,64-10.7c51.7,0,91.5,13.4,119.5,40.2
		c17.4,16.8,29.6,37.2,36.4,61.2c6.8,24,10.3,51.8,10.3,83.6H235.3c0-14.9-0.9-28.3-2.8-40.2c-1.9-11.8-6.2-22.1-13.1-30.8
		c-10-13.1-25.5-19.6-46.7-19.6c-10.6,0-19.5,1.7-26.6,5.1c-7.2,3.4-13.2,7.9-18.2,13.5c-11.8,13.7-17.7,35.5-17.7,65.4
		c0,13.7,0.6,25.2,1.9,34.6c1.2,9.3,3.9,17.3,7.9,23.8c4,6.5,9.6,12.3,16.8,17.3c7.1,5,16.6,9.7,28.5,14l78.4,31.8
		c19.9,8.1,36.4,17.1,49.5,27.1c13.1,10,23.3,22.1,30.8,36.4c7.5,14.3,12.8,31.4,15.9,51.4C343,437.4,344.6,461.3,344.6,489.3"/>
</g>
<path d="M1252.3,169l-57,278.3h113.9L1252.3,169z M1355.9,673.3l-27.1-131.7h-154.1l-26.1,131.7h-110.2L1201.8,8.4h101.8
	l161.6,664.9H1355.9z"/>
<polygon points="2522.2,673.3 2522.2,258.7 2431.7,531.4 2373.8,531.4 2285.1,263.3 2285.1,673.3 2180.5,673.3 2180.5,8.4 
	2274.8,8.4 2403.7,357.7 2531.6,8.4 2626.8,8.4 2626.8,673.3 "/>
<g>
	<defs>
		<rect id="SVGID_3_" x="0" y="0" width="9070.9" height="679.8"/>
	</defs>
	<clipPath id="SVGID_4_">
		<use xlink:href="#SVGID_3_"  style="overflow:visible;"/>
	</clipPath>
	<path class="st1" d="M3627,475.3c0-37.4-6.2-64-18.7-79.8c-12.5-15.9-32.7-23.8-60.7-23.8h-50.4V579h50.4c28,0,48.2-7.6,60.7-22.9
		C3620.7,540.8,3627,513.9,3627,475.3 M3625.1,192.4c0-33-5.8-56.2-17.3-69.6c-11.5-13.4-31-20.1-58.4-20.1h-52.3V283h52.3
		c27.4,0,46.8-7.1,58.4-21.5C3619.3,247.2,3625.1,224.1,3625.1,192.4 M3731.6,482.8c0,39.2-3.1,69.7-9.3,91.5
		c-6.2,21.8-17.4,40.8-33.6,57c-14.3,14.3-31.8,24.9-52.3,31.8c-20.5,6.9-46.7,10.3-78.4,10.3h-165.3V8.4h166.2
		c31.1,0,57,3.3,77.5,9.8c20.5,6.5,37.7,17,51.4,31.3c15.6,15.6,26.5,33.2,32.7,52.8c6.2,19.6,9.3,47.5,9.3,83.6
		c0,23.7-2.5,44.8-7.5,63.5c-5,18.7-15.3,36.1-30.8,52.3c-5,5-10.3,9.3-15.9,13.1c-5.6,3.7-11.8,7.2-18.7,10.3
		c14.9,6.9,27.1,14.9,36.4,24.3c15.6,16.2,25.8,34.7,30.8,55.6C3729.1,425.7,3731.6,451.7,3731.6,482.8"/>
</g>
<path d="M4644.8,169l-57,278.3h113.9L4644.8,169z M4748.5,673.3l-27.1-131.7h-154.1l-26.1,131.7H4431L4594.4,8.4h101.8l161.6,664.9
	H4748.5z"/>
<g>
	<defs>
		<rect id="SVGID_5_" x="0" y="0" width="9070.9" height="679.8"/>
	</defs>
	<clipPath id="SVGID_6_">
		<use xlink:href="#SVGID_5_"  style="overflow:visible;"/>
	</clipPath>
	<path class="st2" d="M5778.2,203.6c0-13.7-0.8-26.8-2.3-39.2c-1.6-12.4-4.5-23.3-8.9-32.7c-4.4-9.3-10.9-16.6-19.6-21.9
		c-8.7-5.3-19.9-7.9-33.6-7.9h-64.4v203.6h64.4c13.7,0,24.9-2.6,33.6-7.9c8.7-5.3,15.2-12.6,19.6-21.9c4.3-9.3,7.3-20.2,8.9-32.7
		C5777.4,230.4,5778.2,217.3,5778.2,203.6 M5795,672.4l-86.8-272.7h-58.8v272.7h-104.6V7.5h168.1c61,0,104.6,15.4,130.7,46.2
		c26.1,30.8,39.2,80.8,39.2,149.9c0,41.1-5.3,76.3-15.9,105.5c-10.6,29.3-31.1,52-61.6,68.2l99,295.1H5795z"/>
	<path class="st2" d="M6872.7,339.9c0-61-1.3-108.9-3.7-143.8c-2.5-34.9-8.7-60.4-18.7-76.6c-5-7.5-11.5-13.5-19.6-18.2
		c-8.1-4.7-18.4-7-30.8-7c-12.5,0-22.6,2.3-30.3,7c-7.8,4.7-14.2,10.7-19.1,18.2c-10,16.2-16.3,41.7-19.1,76.6
		c-2.8,34.9-4.2,82.8-4.2,143.8c0,61,1.4,109,4.2,143.8c2.8,34.9,9.2,60.4,19.1,76.6c5,7.5,11.4,13.5,19.1,18.2
		c7.8,4.7,17.9,7,30.3,7c12.4,0,22.7-2.3,30.8-7c8.1-4.7,14.6-10.7,19.6-18.2c10-16.2,16.2-41.7,18.7-76.6
		C6871.4,448.9,6872.7,400.9,6872.7,339.9 M6977.2,339.9c0,39.2-0.5,73.6-1.4,103.2c-0.9,29.6-3,55.6-6.1,78
		c-3.1,22.4-7.9,41.7-14.5,57.9c-6.5,16.2-15.4,30.8-26.6,43.9c-13.7,16.2-30.8,29.7-51.4,40.6c-20.5,10.9-46.4,16.3-77.5,16.3
		c-31.1,0-57-5.5-77.5-16.3c-20.5-10.9-37.7-24.4-51.4-40.6c-11.2-13.1-19.9-27.9-26.1-44.4c-6.2-16.5-11.1-35.8-14.5-57.9
		c-3.4-22.1-5.6-47.9-6.5-77.5c-0.9-29.6-1.4-64-1.4-103.2c0-39.2,0.5-73.6,1.4-103.2c0.9-29.6,3.1-55.4,6.5-77.5
		c3.4-22.1,8.2-41.4,14.5-57.9c6.2-16.5,14.9-31.3,26.1-44.4c13.7-16.2,30.8-29.7,51.4-40.6C6742.9,5.5,6768.7,0,6799.8,0
		c31.1,0,57,5.5,77.5,16.3c20.5,10.9,37.7,24.4,51.4,40.6c11.2,13.1,20.1,27.7,26.6,43.9c6.5,16.2,11.4,35.5,14.5,57.9
		c3.1,22.4,5.1,48.4,6.1,78C6976.8,266.3,6977.2,300.7,6977.2,339.9"/>
	<path class="st2" d="M8046.5,488.4c0,34.2-3,63.2-8.9,86.8c-5.9,23.7-17.3,43.6-34.1,59.8c-13.7,13.1-31.3,23.7-52.8,31.7
		c-21.5,8.1-47.2,12.1-77,12.1c-56.7,0-99.6-14.6-128.9-43.9c-16.2-16.2-27.4-35.2-33.6-57c-6.2-21.8-9.3-50.4-9.3-85.9h104.6
		c0,18.1,1.2,32.8,3.7,44.4c2.5,11.5,7.5,21.6,14.9,30.3c5,5,11.4,9.2,19.1,12.6c7.8,3.4,17.6,5.1,29.4,5.1c23,0,39.8-6.2,50.4-18.7
		c6.8-8.1,11.5-17.9,14-29.4c2.5-11.5,3.7-26.3,3.7-44.4c0-17.4-0.8-32.1-2.3-43.9c-1.6-11.8-4.7-21.6-9.3-29.4
		c-4.7-7.8-11.1-14.5-19.1-20.1c-8.1-5.6-18.7-10.9-31.8-15.9l-79.4-32.7c-16.8-6.8-31.1-14.6-43-23.3
		c-11.8-8.7-21.3-19.4-28.5-32.2c-7.2-12.8-12.5-28.2-15.9-46.2c-3.4-18-5.1-39.8-5.1-65.4c0-29.9,4.5-56.8,13.5-80.8
		c9-24,22.6-44,40.6-60.2c14.3-12.4,31-22.3,50-29.4c19-7.2,40.3-10.7,64-10.7c51.7,0,91.5,13.4,119.5,40.2
		c17.4,16.8,29.6,37.2,36.4,61.2c6.8,24,10.3,51.8,10.3,83.6h-104.6c0-14.9-0.9-28.3-2.8-40.2c-1.9-11.8-6.2-22.1-13.1-30.8
		c-10-13.1-25.5-19.6-46.7-19.6c-10.6,0-19.5,1.7-26.6,5.1c-7.2,3.4-13.2,7.9-18.2,13.5c-11.8,13.7-17.7,35.5-17.7,65.4
		c0,13.7,0.6,25.2,1.9,34.6c1.2,9.3,3.9,17.3,7.9,23.8c4,6.5,9.6,12.3,16.8,17.3c7.1,5,16.6,9.7,28.5,14l78.4,31.8
		c19.9,8.1,36.4,17.1,49.5,27.1c13.1,10,23.3,22.1,30.8,36.4c7.5,14.3,12.8,31.4,15.9,51.4C8044.9,436.4,8046.5,460.4,8046.5,488.4"
		/>
</g>
<polygon class="st3" points="8791.7,672.4 9070.9,672.4 9070.9,578 8896.2,578 8896.2,384.7 9046.6,384.7 9046.6,290.4 
	8896.2,290.4 8896.2,101.8 9070.9,101.8 9070.9,7.5 8791.7,7.5 "/>
</svg>
