<svg xmlns="http://www.w3.org/2000/svg" xmlns:xlink="http://www.w3.org/1999/xlink" id="Layer_1" viewBox="0 0 9070.9 679.8">
  <defs>
    <path id="SVGID_1_" d="M0 0h9070.9v679.8H0z"/>
  </defs>
  <clipPath id="SVGID_2_">
    <use overflow="visible" xlink:href="#SVGID_1_"/>
  </clipPath>
  <path d="M344.6 489.3c0 34.2-3 63.2-8.9 86.8-5.9 23.7-17.3 43.6-34.1 59.8-13.7 13.1-31.3 23.7-52.8 31.7-21.5 8.1-47.2 12.1-77 12.1-56.7 0-99.6-14.6-128.9-43.9a129.5 129.5 0 0 1-33.6-57C3.1 557.2 0 528.5 0 493.1h104.6c0 18.1 1.2 32.8 3.7 44.4 2.5 11.5 7.5 21.6 14.9 30.3 5 5 11.3 9.2 19.1 12.6 7.8 3.4 17.6 5.1 29.4 5.1 23 0 39.8-6.2 50.4-18.7 6.8-8.1 11.5-17.9 14-29.4s3.7-26.3 3.7-44.4c0-17.4-.8-32.1-2.3-43.9-1.6-11.8-4.7-21.6-9.3-29.4-4.7-7.8-11.1-14.5-19.1-20.1-8.1-5.6-18.7-10.9-31.8-15.9L97.9 351c-16.8-6.8-31.1-14.6-43-23.3-11.8-8.7-21.3-19.4-28.5-32.2-7.2-12.8-12.5-28.2-15.9-46.2-3.4-18-5.1-39.8-5.1-65.4 0-29.9 4.5-56.8 13.5-80.8s22.6-44 40.6-60.2c14.3-12.4 31-22.3 50-29.4 19-7.2 40.3-10.7 64-10.7C225.2 2.8 265 16.2 293 43c17.4 16.8 29.6 37.2 36.4 61.2 6.8 24 10.3 51.8 10.3 83.6H235.3c0-14.9-.9-28.3-2.8-40.2-1.9-11.8-6.2-22.1-13.1-30.8-10-13.1-25.5-19.6-46.7-19.6-10.6 0-19.5 1.7-26.6 5.1-7.2 3.4-13.2 7.9-18.2 13.5-11.8 13.7-17.7 35.5-17.7 65.4 0 13.7.6 25.2 1.9 34.6 1.2 9.3 3.9 17.3 7.9 23.8s9.6 12.3 16.8 17.3c7.1 5 16.6 9.7 28.5 14l78.4 31.8c19.9 8.1 36.4 17.1 49.5 27.1 13.1 10 23.3 22.1 30.8 36.4 7.5 14.3 12.8 31.4 15.9 51.4 3.1 19.8 4.7 43.7 4.7 71.7" clip-path="url(#SVGID_2_)"/>
  <path d="M1252.3 169l-57 278.3h113.9L1252.3 169zm103.6 504.3l-27.1-131.7h-154.1l-26.1 131.7h-110.2L1201.8 8.4h101.8l161.6 664.9h-109.3zM2522.2 673.3V258.7l-90.5 272.7h-57.9l-88.7-268.1v410h-104.6V8.4h94.3l128.9 349.3L2531.6 8.4h95.2v664.9z"/>
  <defs>
    <path id="SVGID_3_" d="M0 0h9070.9v679.8H0z"/>
  </defs>
  <clipPath id="SVGID_4_">
    <use overflow="visible" xlink:href="#SVGID_3_"/>
  </clipPath>
  <path d="M3627 475.3c0-37.4-6.2-64-18.7-79.8-12.5-15.9-32.7-23.8-60.7-23.8h-50.4V579h50.4c28 0 48.2-7.6 60.7-22.9 12.4-15.3 18.7-42.2 18.7-80.8m-1.9-282.9c0-33-5.8-56.2-17.3-69.6-11.5-13.4-31-20.1-58.4-20.1h-52.3V283h52.3c27.4 0 46.8-7.1 58.4-21.5 11.5-14.3 17.3-37.4 17.3-69.1m106.5 290.4c0 39.2-3.1 69.7-9.3 91.5a129.5 129.5 0 0 1-33.6 57c-14.3 14.3-31.8 24.9-52.3 31.8-20.5 6.9-46.7 10.3-78.4 10.3h-165.3V8.4h166.2c31.1 0 57 3.3 77.5 9.8 20.5 6.5 37.7 17 51.4 31.3 15.6 15.6 26.5 33.2 32.7 52.8 6.2 19.6 9.3 47.5 9.3 83.6 0 23.7-2.5 44.8-7.5 63.5-5 18.7-15.3 36.1-30.8 52.3-5 5-10.3 9.3-15.9 13.1-5.6 3.7-11.8 7.2-18.7 10.3 14.9 6.9 27.1 14.9 36.4 24.3 15.6 16.2 25.8 34.7 30.8 55.6 5 20.7 7.5 46.7 7.5 77.8" clip-path="url(#SVGID_4_)"/>
  <path d="M4644.8 169l-57 278.3h113.9L4644.8 169zm103.7 504.3l-27.1-131.7h-154.1l-26.1 131.7H4431L4594.4 8.4h101.8l161.6 664.9h-109.3z"/>
  <g>
    <defs>
      <path id="SVGID_5_" d="M0 0h9070.9v679.8H0z"/>
    </defs>
    <clipPath id="SVGID_6_">
      <use overflow="visible" xlink:href="#SVGID_5_"/>
    </clipPath>
    <path d="M5778.2 203.6c0-13.7-.8-26.8-2.3-39.2-1.6-12.4-4.5-23.3-8.9-32.7a50.14 50.14 0 0 0-19.6-21.9c-8.7-5.3-19.9-7.9-33.6-7.9h-64.4v203.6h64.4c13.7 0 24.9-2.6 33.6-7.9 8.7-5.3 15.2-12.6 19.6-21.9 4.3-9.3 7.3-20.2 8.9-32.7 1.5-12.6 2.3-25.7 2.3-39.4m16.8 468.8l-86.8-272.7h-58.8v272.7h-104.6V7.5h168.1c61 0 104.6 15.4 130.7 46.2 26.1 30.8 39.2 80.8 39.2 149.9 0 41.1-5.3 76.3-15.9 105.5-10.6 29.3-31.1 52-61.6 68.2l99 295.1H5795zM6872.7 339.9c0-61-1.3-108.9-3.7-143.8-2.5-34.9-8.7-60.4-18.7-76.6-5-7.5-11.5-13.5-19.6-18.2-8.1-4.7-18.4-7-30.8-7-12.5 0-22.6 2.3-30.3 7a58.36 58.36 0 0 0-19.1 18.2c-10 16.2-16.3 41.7-19.1 76.6-2.8 34.9-4.2 82.8-4.2 143.8 0 61 1.4 109 4.2 143.8 2.8 34.9 9.2 60.4 19.1 76.6 5 7.5 11.4 13.5 19.1 18.2 7.8 4.7 17.9 7 30.3 7 12.4 0 22.7-2.3 30.8-7 8.1-4.7 14.6-10.7 19.6-18.2 10-16.2 16.2-41.7 18.7-76.6 2.4-34.8 3.7-82.8 3.7-143.8m104.5 0c0 39.2-.5 73.6-1.4 103.2-.9 29.6-3 55.6-6.1 78-3.1 22.4-7.9 41.7-14.5 57.9-6.5 16.2-15.4 30.8-26.6 43.9-13.7 16.2-30.8 29.7-51.4 40.6-20.5 10.9-46.4 16.3-77.5 16.3s-57-5.5-77.5-16.3c-20.5-10.9-37.7-24.4-51.4-40.6a147.68 147.68 0 0 1-26.1-44.4c-6.2-16.5-11.1-35.8-14.5-57.9-3.4-22.1-5.6-47.9-6.5-77.5-.9-29.6-1.4-64-1.4-103.2s.5-73.6 1.4-103.2c.9-29.6 3.1-55.4 6.5-77.5s8.2-41.4 14.5-57.9c6.2-16.5 14.9-31.3 26.1-44.4 13.7-16.2 30.8-29.7 51.4-40.6C6742.9 5.5 6768.7 0 6799.8 0c31.1 0 57 5.5 77.5 16.3 20.5 10.9 37.7 24.4 51.4 40.6 11.2 13.1 20.1 27.7 26.6 43.9s11.4 35.5 14.5 57.9c3.1 22.4 5.1 48.4 6.1 78 .9 29.6 1.3 64 1.3 103.2M8046.5 488.4c0 34.2-3 63.2-8.9 86.8-5.9 23.7-17.3 43.6-34.1 59.8-13.7 13.1-31.3 23.7-52.8 31.7-21.5 8.1-47.2 12.1-77 12.1-56.7 0-99.6-14.6-128.9-43.9a129.5 129.5 0 0 1-33.6-57c-6.2-21.8-9.3-50.4-9.3-85.9h104.6c0 18.1 1.2 32.8 3.7 44.4 2.5 11.5 7.5 21.6 14.9 30.3 5 5 11.4 9.2 19.1 12.6 7.8 3.4 17.6 5.1 29.4 5.1 23 0 39.8-6.2 50.4-18.7 6.8-8.1 11.5-17.9 14-29.4s3.7-26.3 3.7-44.4c0-17.4-.8-32.1-2.3-43.9-1.6-11.8-4.7-21.6-9.3-29.4-4.7-7.8-11.1-14.5-19.1-20.1-8.1-5.6-18.7-10.9-31.8-15.9l-79.4-32.7c-16.8-6.8-31.1-14.6-43-23.3-11.8-8.7-21.3-19.4-28.5-32.2-7.2-12.8-12.5-28.2-15.9-46.2-3.4-18-5.1-39.8-5.1-65.4 0-29.9 4.5-56.8 13.5-80.8s22.6-44 40.6-60.2c14.3-12.4 31-22.3 50-29.4 19-7.2 40.3-10.7 64-10.7 51.7 0 91.5 13.4 119.5 40.2 17.4 16.8 29.6 37.2 36.4 61.2 6.8 24 10.3 51.8 10.3 83.6H7937c0-14.9-.9-28.3-2.8-40.2-1.9-11.8-6.2-22.1-13.1-30.8-10-13.1-25.5-19.6-46.7-19.6-10.6 0-19.5 1.7-26.6 5.1-7.2 3.4-13.2 7.9-18.2 13.5-11.8 13.7-17.7 35.5-17.7 65.4 0 13.7.6 25.2 1.9 34.6 1.2 9.3 3.9 17.3 7.9 23.8s9.6 12.3 16.8 17.3c7.1 5 16.6 9.7 28.5 14l78.4 31.8c19.9 8.1 36.4 17.1 49.5 27.1 13.1 10 23.3 22.1 30.8 36.4 7.5 14.3 12.8 31.4 15.9 51.4 3.3 19.9 4.9 43.9 4.9 71.9" class="st2"/>
  </g>
  <path fill="#f3d8c3" d="M8791.7 672.4h279.2V578h-174.7V384.7h150.4v-94.3h-150.4V101.8h174.7V7.5h-279.2z"/>
</svg>
